<svg width="40" height="32" viewBox="0 0 40 32" fill="none" xmlns="http://www.w3.org/2000/svg">
<g filter="url(#filter0_d)">
<path d="M28.95 15.4875L20 20.8875L11.0667 15.2875C10.8981 15.1824 10.7037 15.1033 10.4944 15.0546C10.2851 15.0059 10.065 14.9886 9.8468 15.0037C9.62858 15.0188 9.41646 15.066 9.22255 15.1425C9.02864 15.2191 8.85675 15.3236 8.71667 15.45C8.57659 15.5764 8.47108 15.7222 8.40616 15.8792C8.34124 16.0362 8.31818 16.2012 8.3383 16.3649C8.35842 16.5285 8.42132 16.6876 8.52342 16.8331C8.62552 16.9785 8.76481 17.1074 8.93334 17.2125L18.9333 23.4625C19.2316 23.6463 19.6056 23.7468 19.9917 23.7468C20.3777 23.7468 20.7518 23.6463 21.05 23.4625L31.05 17.425C31.2212 17.3218 31.3636 17.1943 31.4688 17.0498C31.5741 16.9052 31.6403 16.7465 31.6635 16.5827C31.6868 16.4189 31.6666 16.2533 31.6042 16.0954C31.5418 15.9375 31.4384 15.7903 31.3 15.6625C31.1613 15.535 30.9903 15.4293 30.797 15.3515C30.6037 15.2736 30.3918 15.2252 30.1735 15.209C29.9551 15.1927 29.7347 15.2089 29.5247 15.2567C29.3148 15.3045 29.1194 15.3829 28.95 15.4875V15.4875Z" fill="white" fill-opacity="0.6"/>
<path d="M18.9333 14.7125C19.2316 14.8963 19.6056 14.9968 19.9917 14.9968C20.3777 14.9968 20.7518 14.8963 21.05 14.7125L31.05 8.67498C31.2212 8.57182 31.3636 8.44431 31.4688 8.29977C31.5741 8.15522 31.6403 7.99649 31.6635 7.83271C31.6868 7.66892 31.6666 7.50331 31.6042 7.34538C31.5418 7.18746 31.4384 7.04034 31.3 6.91248C31.1625 6.78407 30.9924 6.67731 30.7997 6.59835C30.607 6.51938 30.3954 6.46976 30.177 6.45233C29.9586 6.43491 29.7378 6.45003 29.5272 6.49682C29.3166 6.54361 29.1205 6.62115 28.95 6.72498L20 12.1375L11.0667 6.53748C10.7263 6.32531 10.2875 6.22323 9.8468 6.2537C9.40609 6.28418 8.99957 6.44471 8.71667 6.69998C8.43378 6.95525 8.29767 7.28435 8.33831 7.61488C8.37894 7.94542 8.59298 8.2503 8.93334 8.46248L18.9333 14.7125Z" fill="white" fill-opacity="0.6"/>
</g>
<defs>
<filter id="filter0_d" x="-4" y="0" width="48" height="38" filterUnits="userSpaceOnUse" color-interpolation-filters="sRGB">
<feFlood flood-opacity="0" result="BackgroundImageFix"/>
<feColorMatrix in="SourceAlpha" type="matrix" values="0 0 0 0 0 0 0 0 0 0 0 0 0 0 0 0 0 0 127 0"/>
<feOffset dy="4"/>
<feGaussianBlur stdDeviation="2"/>
<feColorMatrix type="matrix" values="0 0 0 0 0 0 0 0 0 0 0 0 0 0 0 0 0 0 0.25 0"/>
<feBlend mode="normal" in2="BackgroundImageFix" result="effect1_dropShadow"/>
<feBlend mode="normal" in="SourceGraphic" in2="effect1_dropShadow" result="shape"/>
</filter>
</defs>
</svg>
