<svg width="69" height="69" viewBox="0 0 69 69" fill="none" xmlns="http://www.w3.org/2000/svg">
<g clip-path="url(#clip0)">
<path d="M68.062 59.6554L54.6245 46.2206C54.0181 45.6141 53.196 45.2772 52.3335 45.2772H50.1369C53.8564 40.52 56.0665 34.5377 56.0665 28.0286C56.0665 12.5453 43.5185 0 28.0339 0C12.5494 0 0 12.5453 0 28.0286C0 43.5118 12.548 56.0571 28.0339 56.0571C34.5431 56.0571 40.5281 53.847 45.2853 50.1274V52.3241C45.2853 53.1866 45.6222 54.0087 46.2287 54.6151L59.6661 68.0499C60.9329 69.3167 62.9814 69.3167 64.2347 68.0499L68.0486 64.236C69.3154 62.9692 69.3154 60.9221 68.062 59.6554V59.6554ZM28.0339 47.4321C17.3147 47.4321 8.62769 38.7613 8.62769 28.0286C8.62769 17.3106 17.2999 8.625 28.0339 8.625C38.7532 8.625 47.4402 17.2958 47.4402 28.0286C47.4402 38.7465 38.768 47.4321 28.0339 47.4321ZM28.0366 15.0938C22.5409 15.0938 18.0855 19.5478 18.0855 25.0435C18.0855 29.4854 24.5893 37.5834 27.0812 40.5227C27.198 40.6625 27.3442 40.775 27.5093 40.8522C27.6744 40.9294 27.8544 40.9694 28.0366 40.9694C28.2189 40.9694 28.3989 40.9294 28.564 40.8522C28.7291 40.775 28.8753 40.6625 28.9921 40.5227C31.4839 37.5834 37.9877 29.4867 37.9877 25.0435C37.9877 19.5478 33.5324 15.0938 28.0366 15.0938V15.0938ZM28.0366 28.0312C26.2496 28.0312 24.8023 26.5825 24.8023 24.7969C24.8023 23.0099 26.251 21.5625 28.0366 21.5625C29.8223 21.5625 31.271 23.0099 31.271 24.7969C31.271 26.5825 29.8223 28.0312 28.0366 28.0312Z" fill="black"/>
</g>
<defs>
<clipPath id="clip0">
<rect width="69" height="69" fill="white"/>
</clipPath>
</defs>
</svg>
