<svg width="45" height="45" viewBox="0 0 45 45" fill="none" xmlns="http://www.w3.org/2000/svg">
    <path d="M33.9563 3.31875L37.0875 0.1875L41.0625 4.1625L37.9312 7.29375L33.9563 3.31875V3.31875ZM32.0813 5.19375L36.0562 9.16875L24.6 20.625H20.625V16.6687L32.0813 5.19375V5.19375ZM28.3688 4.95L17.8125 15.5063V23.4562H25.7625L36.3 12.9187C37.0688 14.775 37.5 16.8562 37.5 19.1437C37.5 25.3687 32.4937 32.7375 22.5 41.2687C12.5063 32.7375 7.5 25.3687 7.5 19.1437C7.5 9.80625 14.625 3.76875 22.5 3.76875C24.5438 3.76875 26.55 4.18125 28.3688 4.95V4.95Z"
          fill="black"/>
</svg>
