<svg width="128" height="97" viewBox="0 0 128 97" fill="none" xmlns="http://www.w3.org/2000/svg">
<path d="M119.417 96.7975H8.077C3.76 96.7975 0.125 93.2755 0.125 88.8445V8.40747C0.1245 4.08997 3.646 0.454468 8.077 0.454468H119.417C123.734 0.454468 127.37 3.97647 127.37 8.40747V88.8445C127.37 93.2755 123.848 96.7975 119.417 96.7975Z" fill="#E3E3E3"/>
<path opacity="0.1" d="M16.03 96.7975L63.6335 58.51L63.9745 56.465L14.894 21.132L14.78 95.0935L16.03 96.7975V96.7975Z" fill="#231F20"/>
<path d="M8.07701 96.7975C3.64601 96.7975 0.124512 93.2755 0.124512 88.8445V8.2935C0.124512 3.863 3.64601 3.0675 8.07701 3.0675C12.508 3.0675 16.03 3.9765 16.03 8.2935V96.7975H8.07701Z" fill="#D54B3D"/>
<path d="M8.077 4.2035C13.7575 4.2035 14.894 5.908 14.894 8.2935V95.6615H8.077C4.328 95.6615 1.2605 92.594 1.2605 88.8445V8.2935C1.2605 5.794 2.3965 4.2035 8.077 4.2035ZM8.077 3.0675C3.646 3.0675 0.125 3.9765 0.125 8.2935V88.845C0.125 93.276 3.6465 96.798 8.0775 96.798H16.03V8.2935C16.03 3.863 12.508 3.0675 8.077 3.0675V3.0675Z" fill="#D72B27"/>
<path d="M119.417 96.7975H111.464V8.0665C111.464 3.6355 114.986 3.0675 119.417 3.0675C123.848 3.0675 127.37 3.6355 127.37 8.0665V88.9585C127.37 93.2755 123.848 96.7975 119.417 96.7975Z" fill="#D54B3D"/>
<path d="M119.417 4.2035C124.529 4.2035 126.233 5.226 126.233 8.0665V88.9585C126.233 92.7075 123.166 95.775 119.417 95.775H112.6V8.0665C112.6 5.1125 114.304 4.2035 119.417 4.2035ZM119.417 3.0675C114.986 3.0675 111.464 3.6355 111.464 8.0665V96.9115H119.417C123.848 96.9115 127.37 93.389 127.37 88.9585V8.0665C127.37 3.6355 123.848 3.0675 119.417 3.0675Z" fill="#D72B27"/>
<path d="M85.3335 96.7975L0.790009 11.5975L5.23701 13.406L64.088 55.7835L127.37 9.38V88.9585C127.37 93.2755 123.848 96.7975 119.417 96.7975H85.3335Z" fill="url(#paint0_linear)"/>
<path d="M63.6335 58.51L3.53251 14.883C0.0105069 12.27 -1.01199 7.27098 1.60101 3.74898C4.21501 0.226982 9.32701 -0.568018 12.9625 2.04498L63.7475 38.969L114.872 1.58998C118.394 -1.02302 123.393 -0.227518 126.006 3.40798C128.619 6.92998 127.824 11.929 124.188 14.542L63.633 58.5095L63.6335 58.51Z" fill="#D54B3D"/>
<path d="M119.417 1.136C121.575 1.136 123.62 2.1585 124.984 3.976C127.142 7.044 126.461 11.2475 123.507 13.52L63.6335 57.147L4.21449 13.9745C1.14699 11.702 0.351487 7.3845 2.50999 4.431C3.75999 2.7265 5.91849 1.591 8.19049 1.591C9.66749 1.591 11.1445 2.045 12.2805 2.954L62.952 39.764L63.6335 40.219L64.315 39.764L115.327 2.386C116.577 1.591 117.94 1.136 119.417 1.136V1.136ZM119.417 0C117.826 0 116.122 0.4545 114.759 1.477L63.6335 38.855L12.8485 1.9315C11.486 0.909 9.78199 0.4545 8.07749 0.4545C5.57799 0.4545 3.07849 1.5905 1.48799 3.7495C-1.01151 7.271 0.0109866 12.27 3.53299 14.883L63.634 58.624L124.075 14.5425C127.597 11.9295 128.392 7.044 125.893 3.4085C124.302 1.136 121.916 0 119.417 0Z" fill="#D72B27"/>
<defs>
<linearGradient id="paint0_linear" x1="0.795072" y1="53.087" x2="127.411" y2="53.087" gradientUnits="userSpaceOnUse">
<stop stop-opacity="0.1"/>
<stop offset="1" stop-opacity="0.2"/>
</linearGradient>
</defs>
</svg>
