<svg width="33" height="33" viewBox="0 0 33 33" fill="none" xmlns="http://www.w3.org/2000/svg">
<path d="M30.25 9.00625C30.2345 8.41304 30.1887 7.82101 30.1125 7.2325C30.0098 6.71705 29.8387 6.21762 29.6038 5.7475C29.358 5.23752 29.0279 4.77266 28.6275 4.3725C28.2234 3.97678 27.7593 3.64731 27.2525 3.39625C26.7817 3.16586 26.2823 2.99939 25.7675 2.90125C25.1846 2.81394 24.5968 2.76342 24.0075 2.75H9.00625C8.41304 2.76545 7.82101 2.81134 7.2325 2.8875C6.71705 2.99017 6.21762 3.16127 5.7475 3.39625C5.23752 3.64201 4.77266 3.97206 4.3725 4.3725C3.97678 4.77663 3.64731 5.24067 3.39625 5.7475C3.16586 6.21825 2.99939 6.71767 2.90125 7.2325C2.81394 7.81541 2.76342 8.40324 2.75 8.9925V23.9938C2.76545 24.587 2.81134 25.179 2.8875 25.7675C2.99017 26.283 3.16127 26.7824 3.39625 27.2525C3.64201 27.7625 3.97206 28.2273 4.3725 28.6275C4.77663 29.0232 5.24067 29.3527 5.7475 29.6038C6.21825 29.8341 6.71767 30.0006 7.2325 30.0987C7.81541 30.1861 8.40324 30.2366 8.9925 30.25H23.9938C24.587 30.2345 25.179 30.1887 25.7675 30.1125C26.283 30.0098 26.7824 29.8387 27.2525 29.6038C27.7625 29.358 28.2273 29.0279 28.6275 28.6275C29.0232 28.2234 29.3527 27.7593 29.6038 27.2525C29.8341 26.7817 30.0006 26.2823 30.0987 25.7675C30.1861 25.1846 30.2366 24.5968 30.25 24.0075V9.735V9.00625ZM16.8162 26.125C15.165 26.1169 13.5426 25.6912 12.1 24.8875L6.875 26.2625L8.25 21.1475C7.36328 19.6576 6.88873 17.9587 6.875 16.225C6.88047 14.2765 7.4624 12.3732 8.5475 10.7548C9.63259 9.13646 11.1723 7.87535 12.9728 7.13036C14.7732 6.38536 16.7538 6.1898 18.6652 6.56829C20.5766 6.94678 22.3332 7.88241 23.7138 9.25733C25.0945 10.6322 26.0374 12.385 26.4239 14.2948C26.8103 16.2045 26.623 18.186 25.8855 19.9895C25.148 21.793 23.8933 23.338 22.2794 24.4298C20.6655 25.5216 18.7647 26.1114 16.8162 26.125V26.125ZM16.8162 8.07125C15.3585 8.08793 13.9312 8.4906 12.6796 9.23826C11.4281 9.98593 10.397 11.0519 9.69141 12.3276C8.98578 13.6033 8.63081 15.0432 8.66262 16.5007C8.69443 17.9582 9.11189 19.3813 9.8725 20.625L10.065 20.9412L9.24 23.9525L12.375 23.1L12.6775 23.2788C13.9282 24.0154 15.351 24.4091 16.8025 24.42C18.9905 24.42 21.089 23.5508 22.6361 22.0036C24.1833 20.4565 25.0525 18.358 25.0525 16.17C25.0525 13.982 24.1833 11.8835 22.6361 10.3364C21.089 8.78919 18.9905 7.92 16.8025 7.92L16.8162 8.07125ZM21.6287 19.7863C21.4487 20.0866 21.2075 20.3459 20.9209 20.5472C20.6343 20.7485 20.3087 20.8875 19.965 20.955C19.4515 21.0489 18.9228 21.0158 18.425 20.8588C17.9566 20.7123 17.4974 20.5378 17.05 20.3362C15.3501 19.4833 13.9005 18.2042 12.8425 16.6238C12.2676 15.8915 11.9188 15.0075 11.8387 14.08C11.8306 13.6947 11.9034 13.312 12.0527 12.9567C12.2019 12.6014 12.4242 12.2814 12.705 12.0175C12.7877 11.9237 12.8892 11.8483 13.0029 11.7962C13.1166 11.7441 13.2399 11.7164 13.365 11.715H13.75C13.9012 11.715 14.1075 11.715 14.3 12.1412C14.4925 12.5675 15.0013 13.8462 15.07 13.97C15.1038 14.036 15.1214 14.109 15.1214 14.1831C15.1214 14.2572 15.1038 14.3303 15.07 14.3963C15.0092 14.5457 14.9257 14.6848 14.8225 14.8088C14.6987 14.96 14.5613 15.1388 14.4513 15.2488C14.3413 15.3588 14.2038 15.4962 14.3413 15.7437C14.7154 16.3751 15.1785 16.9494 15.7163 17.4487C16.3019 17.9662 16.9715 18.3801 17.6962 18.6725C17.9437 18.7962 18.095 18.7825 18.2325 18.6725C18.37 18.5625 18.8512 17.9575 19.0162 17.71C19.1812 17.4625 19.3462 17.5037 19.5662 17.5862C19.7862 17.6687 21.01 18.26 21.2575 18.3837C21.505 18.5075 21.6563 18.5625 21.725 18.6725C21.7846 19.0324 21.7515 19.4015 21.6287 19.745V19.7863Z" fill="black"/>
</svg>
