<svg width="22" height="25" viewBox="0 0 22 25" fill="none" xmlns="http://www.w3.org/2000/svg">
    <path d="M18.8571 25H9.42857C9.08482 25 8.66332 24.7192 8.16406 24.1577C7.66481 23.5962 7.22693 22.937 6.85045 22.1802C6.47396 21.4233 6.28571 20.7926 6.28571 20.2881C6.26935 19.8975 6.1343 19.2342 5.88058 18.2983C5.62686 17.3625 5.36905 16.2923 5.10714 15.0879C4.84524 13.8835 4.71429 12.7604 4.71429 11.7188V10.9375C4.71429 10.498 4.8657 10.1278 5.16853 9.82666C5.47135 9.52555 5.84375 9.375 6.28571 9.375C6.64583 9.375 6.96503 9.48486 7.2433 9.70459C7.52158 9.92432 7.70164 10.1969 7.78348 10.5225C7.83259 10.0667 7.85714 9.68424 7.85714 9.375C7.85714 8.43099 7.87351 7.51546 7.90625 6.62842C7.93899 5.74137 8.00446 4.74854 8.10268 3.6499C8.20089 2.55127 8.36458 1.66829 8.59375 1.00098C8.82292 0.333659 9.10119 0 9.42857 0C10.1652 0 10.6112 0.37028 10.7667 1.11084C10.9222 1.8514 11 3.56445 11 6.25C11 6.86849 11.0532 7.39746 11.1596 7.83691C11.266 8.27637 11.3969 8.58968 11.5525 8.77686C11.708 8.96403 11.8635 9.11051 12.019 9.21631C12.1745 9.3221 12.3013 9.375 12.3996 9.375H12.5714C12.5714 8.93555 12.7228 8.56527 13.0257 8.26416C13.3285 7.96305 13.7009 7.8125 14.1429 7.8125C15.1905 7.8125 15.7143 8.85417 15.7143 10.9375C15.7143 10.498 15.8657 10.1278 16.1685 9.82666C16.4714 9.52555 16.8397 9.375 17.2734 9.375C17.7072 9.375 18.0796 9.52555 18.3906 9.82666C18.7016 10.1278 18.8571 10.498 18.8571 10.9375V12.5C18.8571 12.0605 19.0086 11.6903 19.3114 11.3892C19.6142 11.0881 19.9825 10.9375 20.4163 10.9375C20.8501 10.9375 21.2225 11.0881 21.5335 11.3892C21.8445 11.6903 22 12.0605 22 12.5V19.5312C22 20.2799 21.9386 20.9554 21.8158 21.5576C21.6931 22.1598 21.5458 22.644 21.3739 23.0103C21.202 23.3765 20.9974 23.6979 20.76 23.9746C20.5227 24.2513 20.3017 24.4507 20.0971 24.5728C19.8925 24.6948 19.6838 24.7925 19.471 24.8657C19.2582 24.939 19.115 24.9797 19.0413 24.9878C18.9676 24.9959 18.9062 25 18.8571 25ZM17.0402 7.03125C17.2039 6.3151 17.2857 5.6071 17.2857 4.90723C17.2857 3.42611 16.9747 2.04264 16.3527 0.756836L17.7522 0C18.4888 1.51367 18.8571 3.14941 18.8571 4.90723C18.8571 5.90007 18.7344 6.86849 18.4888 7.8125L17.0402 7.03125ZM14.0937 5.41992C14.1265 5.14323 14.1429 4.89909 14.1429 4.6875C14.1429 3.80859 13.9874 2.99479 13.6763 2.24609L14.9777 1.51367C15.4687 2.55534 15.7143 3.68652 15.7143 4.90723C15.7143 5.34668 15.6815 5.78613 15.6161 6.22559L14.0937 5.41992ZM4.76339 5.41992L3.24107 6.22559C3.1756 5.78613 3.14286 5.34668 3.14286 4.90723C3.14286 3.68652 3.38839 2.55534 3.87946 1.51367L5.1808 2.24609C4.86979 2.99479 4.71429 3.80859 4.71429 4.6875C4.71429 4.89909 4.73065 5.14323 4.76339 5.41992ZM1.81696 7.03125L0.368304 7.8125C0.122768 6.86849 0 5.90007 0 4.90723C0 3.14941 0.376488 1.51367 1.12946 0L2.50446 0.756836C1.88244 2.04264 1.57143 3.42611 1.57143 4.90723C1.57143 5.6071 1.65327 6.3151 1.81696 7.03125Z"
          fill="#039BE5"/>
</svg>
